<svg width="20" height="20" view-box="0 0 20 20" fill="none" xmlns="http://www.w3.org/2000/svg">
<path d="M8.1281 2.09413C7.87302 2.03253 7.60753 2 7.33488 2C5.36884 2 3.77506 3.69137 3.77506 5.77777C3.77506 7.86418 5.36884 9.55554 7.33488 9.55554C7.49911 9.55554 7.66075 9.54374 7.81907 9.52089C7.09313 8.5332 6.66968 7.30294 6.66968 5.99998C6.66968 4.52177 7.2147 3.13715 8.1281 2.09413Z" fill="#485158"/>
<path d="M7.15489 10.3969C6.22628 10.4167 5.30921 10.5892 4.45008 10.9062C3.53548 11.2437 2.70445 11.7384 2.00444 12.3621C1.30443 12.9857 0.74915 13.7261 0.370308 14.5409C0.246113 14.808 0.141677 15.0815 0.0573921 15.3594C-0.227437 16.2987 0.590493 17.111 1.56996 17.111H2.69333C2.62051 16.6826 2.63857 16.2241 2.7724 15.7558C2.89218 15.3367 3.04532 14.9263 3.23059 14.5278C3.7385 13.4354 4.47621 12.4573 5.39019 11.643C5.92752 11.1643 6.52022 10.7471 7.15489 10.3969Z" fill="#485158"/>
<path d="M18.4211 18C19.4006 18 20.2176 17.1893 19.9479 16.2456C19.8539 15.9168 19.7334 15.5936 19.587 15.2787C19.1859 14.4159 18.598 13.632 17.8568 12.9717C17.1156 12.3114 16.2357 11.7876 15.2673 11.4302C14.2989 11.0728 13.2609 10.8889 12.2127 10.8889C11.1645 10.8889 10.1266 11.0728 9.1582 11.4302C8.18979 11.7876 7.30988 12.3114 6.56869 12.9717C5.82751 13.632 5.23957 14.4159 4.83844 15.2787C4.69203 15.5936 4.57155 15.9168 4.47759 16.2456C4.20791 17.1893 5.02487 18 6.00434 18H18.4211Z" fill="#485158"/>
<path d="M15.9819 5.99999C15.9819 8.20913 14.2944 9.99998 12.2127 9.99998C10.131 9.99998 8.44348 8.20913 8.44348 5.99999C8.44348 3.79086 10.131 2 12.2127 2C14.2944 2 15.9819 3.79086 15.9819 5.99999Z" fill="#485158"/>
</svg>
