<svg width="24" height="25" viewBox="0 0 24 25" fill="none" xmlns="http://www.w3.org/2000/svg">
<path d="M19.9912 2.32233C19.8599 2.32225 19.7298 2.34807 19.6084 2.39829C19.4871 2.44852 19.3768 2.52218 19.2839 2.61505C19.1911 2.70793 19.1174 2.8182 19.0672 2.93955C19.017 3.06091 18.9911 3.19098 18.9912 3.32233V3.95905C18.1478 5.00475 17.0819 5.84924 15.871 6.43105C14.66 7.01285 13.3346 7.31733 11.9912 7.32233H5.99121C5.19583 7.32319 4.43327 7.63954 3.87085 8.20197C3.30843 8.76439 2.99208 9.52694 2.99121 10.3223V12.3223C2.99208 13.1177 3.30843 13.8803 3.87085 14.4427C4.43327 15.0051 5.19583 15.3215 5.99121 15.3223H6.475L4.07227 20.9287C4.00698 21.0808 3.98047 21.2467 3.99512 21.4115C4.00978 21.5764 4.06514 21.735 4.15624 21.8731C4.24734 22.0113 4.37133 22.1247 4.51706 22.2031C4.6628 22.2815 4.82572 22.3224 4.99121 22.3223H8.99121C9.18696 22.3224 9.37843 22.265 9.54182 22.1572C9.7052 22.0494 9.83329 21.8959 9.91016 21.7159L12.6339 15.3603C13.8646 15.4507 15.0636 15.7924 16.157 16.3643C17.2505 16.9361 18.215 17.7261 18.9912 18.6854V19.3223C18.9912 19.5875 19.0966 19.8419 19.2841 20.0294C19.4716 20.217 19.726 20.3223 19.9912 20.3223C20.2564 20.3223 20.5108 20.217 20.6983 20.0294C20.8859 19.8419 20.9912 19.5875 20.9912 19.3223V3.32233C20.9913 3.19098 20.9655 3.06091 20.9152 2.93955C20.865 2.81819 20.7914 2.70792 20.6985 2.61505C20.6056 2.52218 20.4953 2.44852 20.374 2.39829C20.2526 2.34806 20.1226 2.32225 19.9912 2.32233ZM5.99121 13.3223C5.72605 13.3221 5.4718 13.2167 5.2843 13.0292C5.0968 12.8417 4.99139 12.5875 4.99121 12.3223V10.3223C4.99139 10.0572 5.09681 9.80292 5.2843 9.61542C5.4718 9.42792 5.72605 9.32251 5.99121 9.32233H6.99121V13.3223H5.99121ZM8.33203 20.3223H6.50781L8.65039 15.3223H10.4746L8.33203 20.3223ZM18.9912 15.8441C17.0195 14.2197 14.5459 13.3286 11.9912 13.3223H8.99121V9.32228H11.9912C14.5459 9.31575 17.0195 8.42443 18.9912 6.79994V15.8441Z" fill="#4A4949"/>
</svg>
