<svg width="20" height="20" view-box="0 0 20 20" fill="none" xmlns="http://www.w3.org/2000/svg">
<path d="M10 12C11.0722 12 11.9413 11.1046 11.9413 10C11.9413 8.89543 11.0722 8 10 8C8.92784 8 8.05869 8.89543 8.05869 10C8.05869 11.1046 8.92784 12 10 12Z" fill="#485158"/>
<path d="M13.9687 15.0725C14.1241 15.5698 13.6779 16 13.1437 16H6.85628C6.32206 16 5.87594 15.5698 6.03131 15.0725C6.07727 14.9254 6.13421 14.7807 6.20191 14.6393C6.40851 14.208 6.71133 13.816 7.09307 13.4858C7.47481 13.1557 7.92801 12.8938 8.42678 12.7151C8.92555 12.5364 9.46013 12.4444 10 12.4444C10.5399 12.4444 11.0744 12.5364 11.5732 12.7151C12.072 12.8938 12.5252 13.1557 12.9069 13.4858C13.2887 13.816 13.5915 14.208 13.7981 14.6393C13.8658 14.7807 13.9227 14.9254 13.9687 15.0725Z" fill="#485158"/>
<path fill-rule="evenodd" clip-rule="evenodd" d="M15 2H13.937C13.715 1.13739 12.9319 0.5 12 0.5H8C7.06808 0.5 6.28503 1.13739 6.06301 2H5C3.34315 2 2 3.34315 2 5V17C2 18.6569 3.34315 20 5 20H15C16.6569 20 18 18.6569 18 17V5C18 3.34315 16.6569 2 15 2ZM5 4H6.06301C6.28503 4.86261 7.06808 5.5 8 5.5H12C12.9319 5.5 13.715 4.86261 13.937 4H15C15.5523 4 16 4.44772 16 5V17C16 17.5523 15.5523 18 15 18H5C4.44772 18 4 17.5523 4 17V5C4 4.44772 4.44772 4 5 4Z" fill="#485158"/>
</svg>
