<svg width="20" height="20" viewBox="0 0 20 20" fill="none" xmlns="http://www.w3.org/2000/svg">
<path d="M8.57496 9.75832C8.65243 9.83643 8.7446 9.89843 8.84615 9.94073C8.94769 9.98304 9.05662 10.0048 9.16663 10.0048C9.27664 10.0048 9.38556 9.98304 9.48711 9.94073C9.58866 9.89843 9.68082 9.83643 9.75829 9.75832L13.0916 6.42499C13.1693 6.34729 13.231 6.25505 13.273 6.15353C13.3151 6.05201 13.3367 5.94321 13.3367 5.83332C13.3367 5.72344 13.3151 5.61463 13.273 5.51312C13.231 5.4116 13.1693 5.31936 13.0916 5.24166C13.0139 5.16396 12.9217 5.10232 12.8202 5.06027C12.7186 5.01822 12.6098 4.99658 12.5 4.99658C12.3901 4.99658 12.2813 5.01822 12.1798 5.06027C12.0782 5.10232 11.986 5.16396 11.9083 5.24166L9.16663 7.99166L8.09163 6.90832C7.93471 6.7514 7.72188 6.66325 7.49996 6.66325C7.27804 6.66325 7.06521 6.7514 6.90829 6.90832C6.75137 7.06524 6.66322 7.27807 6.66322 7.49999C6.66322 7.72191 6.75137 7.93474 6.90829 8.09166L8.57496 9.75832ZM17.5 11.6667H16.6666V3.33332H17.5C17.721 3.33332 17.9329 3.24553 18.0892 3.08925C18.2455 2.93297 18.3333 2.721 18.3333 2.49999C18.3333 2.27898 18.2455 2.06701 18.0892 1.91073C17.9329 1.75445 17.721 1.66666 17.5 1.66666H2.49996C2.27895 1.66666 2.06698 1.75445 1.9107 1.91073C1.75442 2.06701 1.66663 2.27898 1.66663 2.49999C1.66663 2.721 1.75442 2.93297 1.9107 3.08925C2.06698 3.24553 2.27895 3.33332 2.49996 3.33332H3.33329V11.6667H2.49996C2.27895 11.6667 2.06698 11.7545 1.9107 11.9107C1.75442 12.067 1.66663 12.279 1.66663 12.5C1.66663 12.721 1.75442 12.933 1.9107 13.0892C2.06698 13.2455 2.27895 13.3333 2.49996 13.3333H9.16663V14.2917L5.37496 16.7917C5.2194 16.8879 5.09986 17.0328 5.03477 17.2037C4.96967 17.3747 4.96265 17.5623 5.01479 17.7377C5.06692 17.9131 5.17531 18.0664 5.32324 18.174C5.47116 18.2817 5.6504 18.3377 5.83329 18.3333C5.99713 18.3352 6.15742 18.2857 6.29163 18.1917L9.16663 16.2917V17.5C9.16663 17.721 9.25442 17.933 9.4107 18.0892C9.56698 18.2455 9.77894 18.3333 9.99996 18.3333C10.221 18.3333 10.4329 18.2455 10.5892 18.0892C10.7455 17.933 10.8333 17.721 10.8333 17.5V16.2917L13.7083 18.1917C13.8425 18.2857 14.0028 18.3352 14.1666 18.3333C14.3447 18.3319 14.5176 18.2736 14.66 18.1668C14.8025 18.06 14.907 17.9104 14.9583 17.7399C15.0095 17.5694 15.0048 17.3869 14.9448 17.2193C14.8848 17.0516 14.7727 16.9076 14.625 16.8083L10.8333 14.3083V13.3333H17.5C17.721 13.3333 17.9329 13.2455 18.0892 13.0892C18.2455 12.933 18.3333 12.721 18.3333 12.5C18.3333 12.279 18.2455 12.067 18.0892 11.9107C17.9329 11.7545 17.721 11.6667 17.5 11.6667ZM15 11.6667H4.99996V3.33332H15V11.6667Z" fill="#4A4949"/>
</svg>
