<svg width="24" height="25" viewBox="0 0 24 25" fill="none" xmlns="http://www.w3.org/2000/svg">
<path d="M22 9.99034C21.9368 9.80742 21.822 9.64676 21.6693 9.52784C21.5167 9.40891 21.3328 9.33683 21.14 9.32034L15.45 8.49034L12.9 3.32034C12.8181 3.15126 12.6902 3.00868 12.5311 2.90891C12.3719 2.80914 12.1878 2.75623 12 2.75623C11.8121 2.75623 11.6281 2.80914 11.4689 2.90891C11.3097 3.00868 11.1819 3.15126 11.1 3.32034L8.54998 8.48034L2.85998 9.32034C2.6749 9.34664 2.5009 9.4243 2.35773 9.54449C2.21455 9.66469 2.10794 9.82261 2.04998 10.0003C1.99692 10.174 1.99216 10.3589 2.03621 10.535C2.08025 10.7112 2.17144 10.8721 2.29998 11.0003L6.42998 15.0003L5.42998 20.6803C5.3896 20.8688 5.40453 21.0648 5.47296 21.245C5.54139 21.4251 5.66041 21.5816 5.81571 21.6957C5.971 21.8098 6.15595 21.8766 6.34831 21.8881C6.54066 21.8995 6.73224 21.8552 6.89998 21.7603L12 19.0903L17.1 21.7603C17.2403 21.8395 17.3988 21.8809 17.56 21.8803C17.7718 21.8811 17.9784 21.8146 18.15 21.6903C18.3051 21.5792 18.4252 21.426 18.4961 21.2488C18.567 21.0716 18.5857 20.8778 18.55 20.6903L17.55 15.0103L21.68 11.0103C21.8244 10.888 21.9311 10.7272 21.9877 10.5467C22.0444 10.3661 22.0486 10.1732 22 9.99034ZM15.85 13.9903C15.7342 14.1027 15.6474 14.2415 15.5969 14.3947C15.5464 14.548 15.5337 14.7111 15.56 14.8703L16.28 19.0703L12.52 17.0703C12.3738 16.998 12.213 16.9604 12.05 16.9604C11.8869 16.9604 11.7261 16.998 11.58 17.0703L7.81998 19.0703L8.53998 14.8703C8.56622 14.7111 8.55354 14.548 8.50305 14.3947C8.45255 14.2415 8.36572 14.1027 8.24998 13.9903L5.24998 10.9903L9.45998 10.3803C9.62198 10.3578 9.77598 10.2959 9.90848 10.2C10.041 10.1041 10.1479 9.97717 10.22 9.83034L12 6.02034L13.88 9.84034C13.952 9.98717 14.059 10.1141 14.1915 10.21C14.324 10.3059 14.478 10.3678 14.64 10.3903L18.85 11.0003L15.85 13.9903Z" fill="#4A4949"/>
</svg>
