<svg width="24" height="25" viewBox="0 0 24 25" fill="none" xmlns="http://www.w3.org/2000/svg">
<path d="M7 4.32031C6.44772 4.32031 6 4.76803 6 5.32031V6.32031C6 6.8726 6.44772 7.32031 7 7.32031H8C8.55228 7.32031 9 6.8726 9 6.32031V5.32031C9 4.76803 8.55229 4.32031 8 4.32031H7Z" fill="#4A4949"/>
<path d="M6 10.3203C6 9.76803 6.44772 9.32031 7 9.32031H8C8.55229 9.32031 9 9.76803 9 10.3203V11.3203C9 11.8726 8.55228 12.3203 8 12.3203H7C6.44772 12.3203 6 11.8726 6 11.3203V10.3203Z" fill="#4A4949"/>
<path d="M12 4.32031C11.4477 4.32031 11 4.76803 11 5.32031V6.32031C11 6.8726 11.4477 7.32031 12 7.32031H13C13.5523 7.32031 14 6.8726 14 6.32031V5.32031C14 4.76803 13.5523 4.32031 13 4.32031H12Z" fill="#4A4949"/>
<path d="M11 10.3203C11 9.76803 11.4477 9.32031 12 9.32031H13C13.5523 9.32031 14 9.76803 14 10.3203V11.3203C14 11.8726 13.5523 12.3203 13 12.3203H12C11.4477 12.3203 11 11.8726 11 11.3203V10.3203Z" fill="#4A4949"/>
<path fill-rule="evenodd" clip-rule="evenodd" d="M1 18.3203H2V3.32031C2 1.66346 3.34315 0.320312 5 0.320312H15C16.6569 0.320312 18 1.66346 18 3.32031V18.3203H19C19.5523 18.3203 20 18.768 20 19.3203C20 19.8726 19.5523 20.3203 19 20.3203H1C0.447715 20.3203 0 19.8726 0 19.3203C0 18.768 0.447715 18.3203 1 18.3203ZM5 2.32031C4.44772 2.32031 4 2.76803 4 3.32031V18.3203H8V15.3203C8 14.768 8.44771 14.3203 9 14.3203H11C11.5523 14.3203 12 14.768 12 15.3203V18.3203H16V3.32031C16 2.76803 15.5523 2.32031 15 2.32031H5Z" fill="#4A4949"/>
</svg>
