<svg width="16" height="18" view-box="0 0 16 18" fill="none" xmlns="http://www.w3.org/2000/svg">
<path d="M15.2583 12.9251L13.2417 10.9084C13.1642 10.8303 13.072 10.7683 12.9705 10.726C12.8689 10.6837 12.76 10.6619 12.65 10.6619C12.54 10.6619 12.4311 10.6837 12.3295 10.726C12.228 10.7683 12.1358 10.8303 12.0583 10.9084L9.075 13.8917C8.99777 13.9696 8.93666 14.062 8.89519 14.1635C8.85372 14.265 8.8327 14.3737 8.83333 14.4834V16.5001C8.83333 16.7211 8.92113 16.9331 9.07741 17.0893C9.23369 17.2456 9.44565 17.3334 9.66667 17.3334H11.6833C11.793 17.334 11.9017 17.313 12.0033 17.2716C12.1048 17.2301 12.1971 17.169 12.275 17.0917L15.2583 14.1084C15.3364 14.0309 15.3984 13.9388 15.4407 13.8372C15.4831 13.7357 15.5048 13.6268 15.5048 13.5167C15.5048 13.4067 15.4831 13.2978 15.4407 13.1963C15.3984 13.0947 15.3364 13.0026 15.2583 12.9251ZM11.3333 15.6667H10.5V14.8334L12.65 12.6834L13.4833 13.5167L11.3333 15.6667ZM6.33333 15.6667H3C2.77899 15.6667 2.56702 15.579 2.41074 15.4227C2.25446 15.2664 2.16667 15.0544 2.16667 14.8334V3.16675C2.16667 2.94573 2.25446 2.73377 2.41074 2.57749C2.56702 2.42121 2.77899 2.33341 3 2.33341H7.16667V4.83342C7.16667 5.49646 7.43006 6.13234 7.8989 6.60118C8.36774 7.07002 9.00362 7.33342 9.66667 7.33342H12.1667V8.16675C12.1667 8.38776 12.2545 8.59972 12.4107 8.756C12.567 8.91228 12.779 9.00008 13 9.00008C13.221 9.00008 13.433 8.91228 13.5893 8.756C13.7455 8.59972 13.8333 8.38776 13.8333 8.16675V6.50008C13.8333 6.50008 13.8333 6.50008 13.8333 6.45008C13.8247 6.37353 13.8079 6.29811 13.7833 6.22508V6.15008C13.7433 6.0644 13.6898 5.98564 13.625 5.91675L8.625 0.916748C8.55611 0.851928 8.47735 0.798482 8.39167 0.758415C8.36679 0.754881 8.34154 0.754881 8.31667 0.758415L8.05 0.666748H3C2.33696 0.666748 1.70107 0.93014 1.23223 1.39898C0.763392 1.86782 0.5 2.50371 0.5 3.16675V14.8334C0.5 15.4965 0.763392 16.1323 1.23223 16.6012C1.70107 17.07 2.33696 17.3334 3 17.3334H6.33333C6.55435 17.3334 6.76631 17.2456 6.92259 17.0893C7.07887 16.9331 7.16667 16.7211 7.16667 16.5001C7.16667 16.2791 7.07887 16.0671 6.92259 15.9108C6.76631 15.7545 6.55435 15.6667 6.33333 15.6667ZM8.83333 3.50841L10.9917 5.66675H9.66667C9.44565 5.66675 9.23369 5.57895 9.07741 5.42267C8.92113 5.26639 8.83333 5.05443 8.83333 4.83342V3.50841ZM4.66667 10.6667H9.66667C9.88768 10.6667 10.0996 10.579 10.2559 10.4227C10.4122 10.2664 10.5 10.0544 10.5 9.83342C10.5 9.6124 10.4122 9.40044 10.2559 9.24416C10.0996 9.08788 9.88768 9.00008 9.66667 9.00008H4.66667C4.44565 9.00008 4.23369 9.08788 4.07741 9.24416C3.92113 9.40044 3.83333 9.6124 3.83333 9.83342C3.83333 10.0544 3.92113 10.2664 4.07741 10.4227C4.23369 10.579 4.44565 10.6667 4.66667 10.6667ZM4.66667 7.33342H5.5C5.72101 7.33342 5.93297 7.24562 6.08926 7.08934C6.24554 6.93306 6.33333 6.7211 6.33333 6.50008C6.33333 6.27907 6.24554 6.06711 6.08926 5.91083C5.93297 5.75455 5.72101 5.66675 5.5 5.66675H4.66667C4.44565 5.66675 4.23369 5.75455 4.07741 5.91083C3.92113 6.06711 3.83333 6.27907 3.83333 6.50008C3.83333 6.7211 3.92113 6.93306 4.07741 7.08934C4.23369 7.24562 4.44565 7.33342 4.66667 7.33342ZM6.33333 12.3334H4.66667C4.44565 12.3334 4.23369 12.4212 4.07741 12.5775C3.92113 12.7338 3.83333 12.9457 3.83333 13.1667C3.83333 13.3878 3.92113 13.5997 4.07741 13.756C4.23369 13.9123 4.44565 14.0001 4.66667 14.0001H6.33333C6.55435 14.0001 6.76631 13.9123 6.92259 13.756C7.07887 13.5997 7.16667 13.3878 7.16667 13.1667C7.16667 12.9457 7.07887 12.7338 6.92259 12.5775C6.76631 12.4212 6.55435 12.3334 6.33333 12.3334Z" fill="#4A4949"/>
</svg>
