<svg width="24" height="25" viewBox="0 0 24 25" fill="none" xmlns="http://www.w3.org/2000/svg">
<path d="M0.599976 3.92032C0.599976 2.59484 1.62077 1.52032 2.87998 1.52032H18.84C20.0992 1.52032 21.12 1.99484 21.12 3.32032H4.01998C3.39037 3.32032 2.87998 3.85758 2.87998 4.52032H21.4C22.5045 4.52032 23.4 5.41576 23.4 6.52033V11.7203H19.41C18.4656 11.7203 17.7 12.5262 17.7 13.5203C17.7 14.5144 18.4656 15.3203 19.41 15.3203H23.4V20.7203C23.4 22.0458 22.3792 23.1203 21.12 23.1203H5.15998C2.64156 23.1203 0.599976 20.9713 0.599976 18.3203V3.92032Z" fill="#4A4949"/>
</svg>
