<svg width="24" height="25" viewBox="0 0 24 25" fill="none" xmlns="http://www.w3.org/2000/svg">
<path d="M19 4.32031H17V3.32031C17 3.0551 16.8946 2.80074 16.7071 2.61321C16.5196 2.42567 16.2652 2.32031 16 2.32031C15.7348 2.32031 15.4804 2.42567 15.2929 2.61321C15.1054 2.80074 15 3.0551 15 3.32031V4.32031H9V3.32031C9 3.0551 8.89464 2.80074 8.70711 2.61321C8.51957 2.42567 8.26522 2.32031 8 2.32031C7.73478 2.32031 7.48043 2.42567 7.29289 2.61321C7.10536 2.80074 7 3.0551 7 3.32031V4.32031H5C4.20435 4.32031 3.44129 4.63638 2.87868 5.19899C2.31607 5.7616 2 6.52466 2 7.32031V19.3203C2 20.116 2.31607 20.879 2.87868 21.4416C3.44129 22.0042 4.20435 22.3203 5 22.3203H19C19.7956 22.3203 20.5587 22.0042 21.1213 21.4416C21.6839 20.879 22 20.116 22 19.3203V7.32031C22 6.52466 21.6839 5.7616 21.1213 5.19899C20.5587 4.63638 19.7956 4.32031 19 4.32031ZM20 19.3203C20 19.5855 19.8946 19.8399 19.7071 20.0274C19.5196 20.215 19.2652 20.3203 19 20.3203H5C4.73478 20.3203 4.48043 20.215 4.29289 20.0274C4.10536 19.8399 4 19.5855 4 19.3203V12.3203H20V19.3203ZM20 10.3203H4V7.32031C4 7.0551 4.10536 6.80074 4.29289 6.61321C4.48043 6.42567 4.73478 6.32031 5 6.32031H7V7.32031C7 7.58553 7.10536 7.83988 7.29289 8.02742C7.48043 8.21496 7.73478 8.32031 8 8.32031C8.26522 8.32031 8.51957 8.21496 8.70711 8.02742C8.89464 7.83988 9 7.58553 9 7.32031V6.32031H15V7.32031C15 7.58553 15.1054 7.83988 15.2929 8.02742C15.4804 8.21496 15.7348 8.32031 16 8.32031C16.2652 8.32031 16.5196 8.21496 16.7071 8.02742C16.8946 7.83988 17 7.58553 17 7.32031V6.32031H19C19.2652 6.32031 19.5196 6.42567 19.7071 6.61321C19.8946 6.80074 20 7.0551 20 7.32031V10.3203Z" fill="#4A4949"/>
</svg>
