<svg width="24" height="25" viewBox="0 0 24 25" fill="none" xmlns="http://www.w3.org/2000/svg">
<path d="M7.69222 9.15365L8.57111 3.32031H4L2.09 8.32031C2.03111 8.49809 2 8.68254 2 8.87587C2 10.1025 3.27778 11.0981 4.85667 11.0981C6.31222 11.0981 7.51556 10.2492 7.69222 9.15365ZM12 11.0981C13.5778 11.0981 14.8567 10.1025 14.8567 8.87587C14.8567 8.83031 14.8533 8.78476 14.8511 8.74142L14.2856 3.32031H9.71444L9.14778 8.73698C9.14556 8.78254 9.14333 8.82809 9.14333 8.87587C9.14333 10.1025 10.4222 11.0981 12 11.0981ZM21.9111 8.32031L19.9989 3.32031H15.4289L16.3067 9.14476C16.4778 10.2448 17.6811 11.0981 19.1433 11.0981C20.7211 11.0981 22 10.1025 22 8.87587C22 8.68254 21.9689 8.49809 21.9111 8.32031Z" fill="#4A4949"/>
<path d="M4.0002 13.3203C4.0002 12.768 4.44791 12.3203 5.0002 12.3203C5.55248 12.3203 6.0002 12.768 6.0002 13.3203V20.3203C6.0002 20.8726 5.55248 21.3203 5.0002 21.3203C4.44791 21.3203 4.0002 20.8726 4.0002 20.3203V13.3203Z" fill="#4A4949"/>
<path d="M18.0002 13.3203C18.0002 12.768 18.4479 12.3203 19.0002 12.3203C19.5525 12.3203 20.0002 12.768 20.0002 13.3203V20.3203C20.0002 20.8726 19.5525 21.3203 19.0002 21.3203C18.4479 21.3203 18.0002 20.8726 18.0002 20.3203V13.3203Z" fill="#4A4949"/>
<path d="M8.0002 17.3203C8.0002 16.768 8.44791 16.3203 9.0002 16.3203H15.0002C15.5525 16.3203 16.0002 16.768 16.0002 17.3203V20.3203C16.0002 20.8726 15.5525 21.3203 15.0002 21.3203H9.0002C8.44791 21.3203 8.0002 20.8726 8.0002 20.3203V17.3203Z" fill="#4A4949"/>
</svg>
