<svg width="20" height="20" viewBox="0 0 20 20" fill="none" xmlns="http://www.w3.org/2000/svg">
<path d="M18.3337 6.51666C18.3377 6.46395 18.3377 6.41102 18.3337 6.35832L16.667 2.19166C16.6019 2.02695 16.486 1.88727 16.3362 1.79287C16.1863 1.69847 16.0103 1.65426 15.8337 1.66666H4.16699C4.00009 1.66649 3.83699 1.71645 3.69881 1.81006C3.56063 1.90366 3.45375 2.0366 3.39199 2.19166L1.72533 6.35832C1.72131 6.41102 1.72131 6.46395 1.72533 6.51666C1.69763 6.56304 1.67792 6.61375 1.66699 6.66666C1.67627 7.24269 1.83468 7.80649 2.12678 8.30306C2.41888 8.79962 2.83469 9.21201 3.33366 9.49999V17.5C3.33366 17.721 3.42146 17.933 3.57774 18.0892C3.73402 18.2455 3.94598 18.3333 4.16699 18.3333H15.8337C16.0547 18.3333 16.2666 18.2455 16.4229 18.0892C16.5792 17.933 16.667 17.721 16.667 17.5V9.53332C17.1708 9.24247 17.5897 8.82484 17.8821 8.32194C18.1745 7.81903 18.3301 7.24837 18.3337 6.66666C18.3415 6.61696 18.3415 6.56635 18.3337 6.51666ZM10.8337 16.6667H9.16699V13.3333H10.8337V16.6667ZM15.0003 16.6667H12.5003V12.5C12.5003 12.279 12.4125 12.067 12.2562 11.9107C12.1 11.7545 11.888 11.6667 11.667 11.6667H8.33366C8.11265 11.6667 7.90068 11.7545 7.7444 11.9107C7.58812 12.067 7.50033 12.279 7.50033 12.5V16.6667H5.00033V9.99999C5.47488 9.99731 5.9434 9.89333 6.37454 9.69501C6.80567 9.49669 7.18949 9.20859 7.50033 8.84999C7.81313 9.20468 8.19783 9.48875 8.62887 9.68332C9.0599 9.8779 9.52741 9.97853 10.0003 9.97853C10.4732 9.97853 10.9407 9.8779 11.3718 9.68332C11.8028 9.48875 12.1875 9.20468 12.5003 8.84999C12.8112 9.20859 13.195 9.49669 13.6261 9.69501C14.0573 9.89333 14.5258 9.99731 15.0003 9.99999V16.6667ZM15.0003 8.33332C14.5583 8.33332 14.1344 8.15773 13.8218 7.84517C13.5093 7.53261 13.3337 7.10868 13.3337 6.66666C13.3337 6.44564 13.2459 6.23368 13.0896 6.0774C12.9333 5.92112 12.7213 5.83332 12.5003 5.83332C12.2793 5.83332 12.0674 5.92112 11.9111 6.0774C11.7548 6.23368 11.667 6.44564 11.667 6.66666C11.667 7.10868 11.4914 7.53261 11.1788 7.84517C10.8663 8.15773 10.4424 8.33332 10.0003 8.33332C9.5583 8.33332 9.13438 8.15773 8.82182 7.84517C8.50925 7.53261 8.33366 7.10868 8.33366 6.66666C8.33366 6.44564 8.24586 6.23368 8.08958 6.0774C7.9333 5.92112 7.72134 5.83332 7.50033 5.83332C7.27931 5.83332 7.06735 5.92112 6.91107 6.0774C6.75479 6.23368 6.66699 6.44564 6.66699 6.66666C6.6752 6.88553 6.64022 7.10387 6.56404 7.30922C6.48787 7.51457 6.37199 7.7029 6.22303 7.86347C6.07407 8.02404 5.89494 8.1537 5.69587 8.24504C5.49681 8.33638 5.2817 8.38762 5.06283 8.39582C4.6208 8.4124 4.19029 8.2527 3.86601 7.95186C3.70544 7.8029 3.57578 7.62377 3.48444 7.4247C3.3931 7.22564 3.34187 7.01053 3.33366 6.79166L4.73366 3.33332H15.267L16.667 6.79166C16.6354 7.21167 16.446 7.60415 16.1368 7.89016C15.8276 8.17617 15.4215 8.33451 15.0003 8.33332Z" fill="#4A4949"/>
</svg>
