<svg width="20" height="20" view-box="0 0 20 20" fill="none" xmlns="http://www.w3.org/2000/svg">
    <path fill-rule="evenodd" clip-rule="evenodd" d="M5 8H1V4a3 3 0 0 1 3-3c.38 0 .71 0 1 .007V1h9a3 3 0 0 1 3 3v8h2v4a3 3 0 0 1-3 3H8a3 3 0 0 1-3-3V8zm0-2V4a1 1 0 0 0-2 0v2h2zm10 6V4a1 1 0 0 0-1-1H7v13a1 1 0 1 0 2 0v-4h6zm-4.17 5H16a1 1 0 0 0 1-1v-2h-6v2c0 .351-.06.688-.17 1z" fill="#485158"/>
    <rect x="8" y="5" width="6" height="1.5" rx=".75" fill="#485158"/>
    <rect x="8" y="8" width="4" height="1.5" rx=".75" fill="#485158"/>
</svg>
