<svg width="20" height="20" view-box="0 0 20 20" fill="none" xmlns="http://www.w3.org/2000/svg">
<path fill-rule="evenodd" clip-rule="evenodd" d="M17.7143 15.296V14.1433V12.4024V8.75016V3.25605C17.7143 2.65584 17.2023 2.17068 16.5714 2.17068H13.1428H10.2857H3.42856C2.7977 2.17068 2.2857 2.65584 2.2857 3.25605V8.75016V12.4024V14.1433V15.296V16.7439C2.2857 17.3419 2.7977 17.8292 3.42856 17.8292H10.2857H13.1428H16.5714C17.2023 17.8292 17.7143 17.3419 17.7143 16.7439V15.296ZM13.1429 0H16.5714C18.4651 0 20 1.45764 20 3.25609V8.7502V12.4025V14.1434V15.296V16.7439C20 18.5424 18.4651 20 16.5714 20H13.1429H10.2857H3.42857C1.53486 20 0 18.5424 0 16.7439V15.296V14.1434V12.4025V8.7502V3.25609C0 1.45764 1.53486 0 3.42857 0H10.2857H13.1429ZM5.42963 3.66808H7.14391C7.61705 3.66808 8.00105 4.03276 8.00105 4.4821V6.11015C8.00105 6.55949 7.61705 6.92417 7.14391 6.92417H5.42963C4.95648 6.92417 4.57248 6.55949 4.57248 6.11015V4.4821C4.57248 4.03276 4.95648 3.66808 5.42963 3.66808ZM5.42963 8.37104H7.14391C7.61705 8.37104 8.00105 8.73572 8.00105 9.18506V10.8131C8.00105 11.2624 7.61705 11.6271 7.14391 11.6271H5.42963C4.95648 11.6271 4.57248 11.2624 4.57248 10.8131V9.18506C4.57248 8.73572 4.95648 8.37104 5.42963 8.37104ZM7.14391 13.075H5.42963C4.95648 13.075 4.57248 13.4385 4.57248 13.889V15.517C4.57248 15.9664 4.95648 16.331 5.42963 16.331H7.14391C7.61705 16.331 8.00105 15.9664 8.00105 15.517V13.889C8.00105 13.4385 7.61705 13.075 7.14391 13.075ZM14.8396 13.075H14.2865H14.2385H13.6967H13.1436H12.5539H12.5059H12.0007H10.8579C10.5413 13.075 10.2865 13.3181 10.2865 13.6176V14.703C10.2865 15.0015 10.5413 15.2457 10.8579 15.2457H12.0007H12.5059H12.5539H13.1436H13.6967H14.2385H14.2865H14.8396C15.155 15.2457 15.411 15.0015 15.411 14.703V13.6176C15.411 13.3181 15.155 13.075 14.8396 13.075ZM14.8396 8.37104H14.2865H14.2385H13.6967H13.1436H12.5539H12.5059H12.0007H10.8579C10.5413 8.37104 10.2865 8.61525 10.2865 8.91372V9.99909C10.2865 10.2986 10.5413 10.5418 10.8579 10.5418H12.0007H12.5059H12.5539H13.1436H13.6967H14.2385H14.2865H14.8396C15.155 10.5418 15.411 10.2986 15.411 9.99909V8.91372C15.411 8.61525 15.155 8.37104 14.8396 8.37104ZM14.8396 3.66808H14.2865H14.2385H13.6967H13.1436H12.5539H12.5059H12.0007H10.8579C10.5413 3.66808 10.2865 3.9112 10.2865 4.21076V5.29612C10.2865 5.59568 10.5413 5.8388 10.8579 5.8388H12.0007H12.5059H12.5539H13.1436H13.6967H14.2385H14.2865H14.8396C15.155 5.8388 15.411 5.59568 15.411 5.29612V4.21076C15.411 3.9112 15.155 3.66808 14.8396 3.66808Z" fill="#485158"/>
</svg>
