<svg width="27" height="25" viewBox="0 0 27 25" fill="none" xmlns="http://www.w3.org/2000/svg">
<path d="M22.8 12.3203C22.8 9.67463 21.8289 7.12097 20.0708 5.14384C18.3128 3.16672 15.8902 1.90369 13.2626 1.59438C10.6351 1.28508 7.98538 1.95102 5.81629 3.46586C3.64719 4.9807 2.1096 7.23904 1.49523 9.81242C0.880865 12.3858 1.23247 15.0952 2.48334 17.4265C3.7342 19.7578 5.7973 21.5489 8.28121 22.4599C10.7651 23.3709 13.497 23.3384 15.9586 22.3687C18.4201 21.399 20.4401 19.5594 21.6353 17.199" stroke="#4A4949" stroke-width="2" stroke-linecap="round"/>
<path d="M7.59081 16.0203H7.69081V15.9203V12.9453H8.7947L10.2153 15.9629L10.2423 16.0203H10.3058H12.0133H12.1133V15.9203V15.8396V15.8165L12.1032 15.7958L10.4758 12.4514C10.9094 12.2225 11.2401 11.9214 11.4628 11.5466C11.7041 11.1427 11.8216 10.6449 11.8216 10.0588C11.8216 9.22932 11.5665 8.57455 11.0459 8.10922C10.5267 7.64527 9.79616 7.42032 8.86876 7.42032H6H5.9V7.52032V15.9203V16.0203H6H7.59081ZM9.74374 9.32967L9.74374 9.32968L9.74432 9.3303C9.93151 9.53397 10.0308 9.81877 10.0308 10.1972C10.0308 10.566 9.9274 10.8441 9.73101 11.0442C9.53558 11.2394 9.25481 11.3434 8.87406 11.3434H7.69081V9.02225H8.86876C9.27986 9.02225 9.56427 9.13104 9.74374 9.32967ZM14.3677 18.4203H14.4677V18.3203V15.6337C14.8183 15.968 15.2552 16.1357 15.7729 16.1357C16.4891 16.1357 17.0602 15.8302 17.4777 15.2273C17.8958 14.6247 18.1 13.8316 18.1 12.8569V12.7703C18.1 11.7587 17.9017 10.9516 17.4937 10.3597C17.0822 9.76269 16.5013 9.46263 15.7623 9.46263C15.2148 9.46263 14.7551 9.65742 14.3883 10.0429L14.3559 9.66938L14.348 9.57802H14.2563H12.8352H12.7352V9.67802V18.3203V18.4203H12.8352H14.3677ZM16.0952 11.4426L16.0956 11.4433C16.2731 11.7365 16.3675 12.1636 16.3675 12.7357C16.3675 13.3816 16.2763 13.8499 16.1059 14.1536C16.0215 14.3039 15.9187 14.4122 15.799 14.4833C15.6794 14.5543 15.5375 14.5915 15.3699 14.5915C15.1438 14.5915 14.9592 14.5432 14.8112 14.452C14.6686 14.3642 14.5535 14.2326 14.4677 14.0521V11.5403C14.5499 11.3661 14.662 11.239 14.8025 11.154C14.9488 11.0655 15.1327 11.0184 15.3593 11.0184C15.6838 11.0184 15.9255 11.1569 16.0952 11.4426Z" fill="#4A4949" stroke="#4A4949" stroke-width="0.2"/>
<path d="M20.4 11.1203L22.8 13.5203L25.2 11.1203" stroke="#4A4949" stroke-width="2" stroke-linecap="round" stroke-linejoin="round"/>
</svg>
