<svg width="20" height="20" view-box="0 0 20 20" fill="none" xmlns="http://www.w3.org/2000/svg">
<path fill-rule="evenodd" clip-rule="evenodd" d="M18.5683 4.4485C18.6675 4.42454 18.7688 4.47902 18.8034 4.57494L19.8083 7.35619C19.8488 7.46821 19.783 7.59057 19.6672 7.61855L18.2537 7.96015C18.1463 7.9861 18.0803 8.09417 18.1063 8.20154L18.4351 9.56231C18.4672 9.69501 18.3598 9.82012 18.2238 9.80858L17.2979 9.73003C17.1618 9.71849 17.0545 9.8436 17.0865 9.97629L17.3972 11.2618C17.4293 11.3944 17.3219 11.5196 17.1859 11.508L16.1081 11.4166C16.0318 11.4101 15.9586 11.4477 15.9194 11.5134L15.6136 12.0263C16.7554 13.3016 16.9816 15.2221 16.0435 16.7582C14.897 18.6354 12.4459 19.2277 10.5688 18.0813C8.69161 16.9348 8.09926 14.4837 9.24571 12.6066C10.1197 11.1756 11.7518 10.4913 13.3098 10.7547L16.8744 4.91812C16.9021 4.87285 16.9466 4.84042 16.9981 4.82796L18.5683 4.4485ZM12.6291 16.6184C12.3424 17.0876 11.7297 17.2357 11.2604 16.9491C10.7911 16.6625 10.643 16.0497 10.9296 15.5804C11.2162 15.1112 11.829 14.9631 12.2983 15.2497C12.7676 15.5363 12.9157 16.1491 12.6291 16.6184Z" fill="#485158"/>
<path fill-rule="evenodd" clip-rule="evenodd" d="M7.78724 9.99998C9.86892 9.99998 11.5565 8.20913 11.5565 5.99999C11.5565 3.79086 9.86892 2 7.78724 2C5.70555 2 4.01802 3.79086 4.01802 5.99999C4.01802 8.20913 5.70555 9.99998 7.78724 9.99998ZM8.12861 18C6.80365 16.3346 6.59224 13.9685 7.77775 12.0566C8.04101 11.632 8.35587 11.2577 8.7095 10.9365C8.40399 10.9049 8.09607 10.8889 7.78727 10.8889C6.73907 10.8889 5.70114 11.0728 4.73273 11.4302C3.76433 11.7876 2.88441 12.3114 2.14323 12.9717C1.40204 13.632 0.814099 14.4159 0.412972 15.2787C0.266562 15.5936 0.146087 15.9168 0.052119 16.2456C-0.217562 17.1893 0.599403 18 1.57887 18H8.12861Z" fill="#485158"/>
</svg>
