<svg width="24" height="25" viewBox="0 0 24 25" fill="none" xmlns="http://www.w3.org/2000/svg">
<path fill-rule="evenodd" clip-rule="evenodd" d="M16 12.3203C16 13.3812 15.5786 14.3986 14.8284 15.1487C14.0783 15.8989 13.0609 16.3203 12 16.3203C10.9391 16.3203 9.92172 15.8989 9.17157 15.1487C8.42143 14.3986 8 13.3812 8 12.3203C8 11.2594 8.42143 10.242 9.17157 9.49189C9.92172 8.74174 10.9391 8.32031 12 8.32031C13.0609 8.32031 14.0783 8.74174 14.8284 9.49189C15.5786 10.242 16 11.2594 16 12.3203ZM14.5 12.3203C14.5 12.9834 14.2366 13.6192 13.7678 14.0881C13.2989 14.5569 12.663 14.8203 12 14.8203C11.337 14.8203 10.7011 14.5569 10.2322 14.0881C9.76339 13.6192 9.5 12.9834 9.5 12.3203C9.5 11.6573 9.76339 11.0214 10.2322 10.5525C10.7011 10.0837 11.337 9.82031 12 9.82031C12.663 9.82031 13.2989 10.0837 13.7678 10.5525C14.2366 11.0214 14.5 11.6573 14.5 12.3203Z" fill="#4A4949"/>
<path fill-rule="evenodd" clip-rule="evenodd" d="M12 1.32031C11.732 1.32031 11.466 1.33031 11.203 1.34831C10.44 1.40331 9.85797 1.96531 9.69097 2.65231L9.33897 4.10231C9.31897 4.18032 9.24897 4.27431 9.11397 4.32231C8.86672 4.41193 8.62379 4.51304 8.38597 4.62531C8.25597 4.68531 8.13997 4.66932 8.07097 4.62732L6.79697 3.85131C6.19297 3.48331 5.38497 3.49731 4.80697 3.99831C4.40397 4.34631 4.02697 4.72432 3.67797 5.12632C3.17797 5.70532 3.16297 6.51331 3.53097 7.11631L4.30697 8.39131C4.34897 8.46031 4.36597 8.57631 4.30497 8.70631C4.19297 8.94331 4.09197 9.18632 4.00297 9.43432C3.95297 9.56932 3.85997 9.64032 3.78197 9.65932L2.33197 10.0113C1.64497 10.1783 1.08297 10.7603 1.02797 11.5233C0.989943 12.054 0.989943 12.5867 1.02797 13.1173C1.08297 13.8803 1.64497 14.4623 2.33197 14.6293L3.78197 14.9813C3.85997 15.0013 3.95397 15.0713 4.00197 15.2063C4.09197 15.4543 4.19297 15.6973 4.30497 15.9353C4.36497 16.0643 4.34897 16.1803 4.30697 16.2493L3.53097 17.5233C3.16297 18.1273 3.17697 18.9353 3.67797 19.5133C4.02597 19.9163 4.40397 20.2933 4.80597 20.6423C5.38497 21.1423 6.19297 21.1573 6.79597 20.7893L8.07097 20.0133C8.13997 19.9713 8.25597 19.9543 8.38597 20.0153C8.62297 20.1273 8.86597 20.2283 9.11397 20.3173C9.24897 20.3673 9.31997 20.4603 9.33897 20.5383L9.69097 21.9883C9.85797 22.6753 10.44 23.2373 11.203 23.2913C11.7336 23.3294 12.2663 23.3294 12.797 23.2913C13.56 23.2373 14.142 22.6753 14.309 21.9883L14.661 20.5383C14.681 20.4603 14.751 20.3663 14.886 20.3183C15.134 20.2283 15.377 20.1273 15.615 20.0153C15.744 19.9553 15.86 19.9713 15.929 20.0133L17.203 20.7893C17.807 21.1573 18.615 21.1433 19.193 20.6423C19.596 20.2943 19.973 19.9163 20.322 19.5143C20.822 18.9353 20.837 18.1273 20.469 17.5243L19.693 16.2493C19.651 16.1803 19.634 16.0643 19.695 15.9343C19.807 15.6973 19.908 15.4543 19.997 15.2063C20.047 15.0713 20.14 15.0003 20.218 14.9813L21.668 14.6293C22.355 14.4623 22.917 13.8803 22.971 13.1173C23.0091 12.5867 23.0091 12.054 22.971 11.5233C22.917 10.7603 22.355 10.1783 21.668 10.0113L20.218 9.65932C20.14 9.63931 20.046 9.56932 19.998 9.43432C19.9083 9.18708 19.8072 8.94415 19.695 8.70631C19.635 8.57631 19.651 8.46031 19.693 8.39131L20.469 7.11731C20.837 6.51331 20.823 5.70532 20.322 5.12732C19.974 4.72432 19.596 4.34731 19.194 3.99831C18.615 3.49831 17.807 3.48331 17.204 3.85131L15.929 4.62732C15.86 4.66932 15.744 4.68631 15.614 4.62531C15.3761 4.5134 15.1332 4.41262 14.886 4.32331C14.751 4.27331 14.68 4.18032 14.661 4.10231L14.309 2.65231C14.142 1.96531 13.56 1.40331 12.797 1.34831C12.5317 1.32948 12.2659 1.32014 12 1.32031ZM11.31 2.84531C11.7694 2.81237 12.2306 2.81237 12.69 2.84531C12.745 2.84931 12.825 2.89531 12.852 3.00531L13.203 4.45532C13.356 5.08332 13.829 5.53532 14.376 5.73331C14.581 5.80731 14.781 5.89032 14.976 5.98232C15.2485 6.11411 15.5494 6.17633 15.8518 6.16341C16.1542 6.1505 16.4487 6.06286 16.709 5.90831L17.984 5.13231C18.081 5.07231 18.17 5.09631 18.212 5.13231C18.56 5.43431 18.886 5.76031 19.188 6.10831C19.224 6.15031 19.248 6.23831 19.188 6.33631L18.412 7.61031C18.2573 7.8707 18.1695 8.16539 18.1566 8.468C18.1437 8.7706 18.206 9.07169 18.338 9.34432C18.43 9.53932 18.513 9.73932 18.586 9.94431C18.784 10.4913 19.238 10.9643 19.864 11.1163L21.314 11.4693C21.425 11.4953 21.471 11.5753 21.475 11.6303C21.5079 12.0897 21.5079 12.5509 21.475 13.0103C21.471 13.0653 21.425 13.1453 21.315 13.1723L19.865 13.5233C19.5717 13.5981 19.3014 13.7444 19.0784 13.9491C18.8554 14.1537 18.6866 14.4105 18.587 14.6963C18.5131 14.9001 18.4297 15.1003 18.337 15.2963C18.2053 15.5689 18.1433 15.8698 18.1564 16.1723C18.1695 16.4747 18.2573 16.7691 18.412 17.0293L19.188 18.3043C19.248 18.4013 19.224 18.4903 19.188 18.5323C18.8866 18.8808 18.5604 19.2069 18.212 19.5083C18.17 19.5443 18.082 19.5683 17.984 19.5083L16.709 18.7323C16.4487 18.5778 16.1542 18.4901 15.8518 18.4772C15.5494 18.4643 15.2485 18.5265 14.976 18.6583C14.78 18.7503 14.5797 18.8331 14.376 18.9063C14.0903 19.0061 13.8338 19.175 13.6293 19.398C13.4248 19.621 13.2787 19.8911 13.204 20.1843L12.851 21.6343C12.825 21.7453 12.745 21.7913 12.69 21.7953C12.2306 21.8282 11.7694 21.8282 11.31 21.7953C11.255 21.7913 11.175 21.7453 11.148 21.6353L10.797 20.1853C10.7222 19.892 10.5759 19.6218 10.3712 19.3988C10.1665 19.1758 9.90982 19.0069 9.62397 18.9073C9.42017 18.8334 9.21995 18.75 9.02397 18.6573C8.75127 18.5255 8.45014 18.4634 8.14753 18.4764C7.84492 18.4895 7.55028 18.5774 7.28997 18.7323L6.01597 19.5083C5.91897 19.5683 5.82997 19.5443 5.78797 19.5083C5.43955 19.2069 5.11337 18.8807 4.81197 18.5323C4.77597 18.4903 4.75197 18.4023 4.81197 18.3043L5.58797 17.0293C5.74252 16.769 5.83016 16.4745 5.84307 16.1721C5.85599 15.8697 5.79377 15.5688 5.66197 15.2963C5.56966 15.1003 5.48657 14.9001 5.41297 14.6963C5.31332 14.4108 5.14457 14.1543 4.92176 13.9498C4.69894 13.7453 4.42899 13.5992 4.13597 13.5243L2.68597 13.1713C2.57497 13.1453 2.52897 13.0653 2.52497 13.0103C2.49203 12.5509 2.49203 12.0897 2.52497 11.6303C2.52897 11.5753 2.57497 11.4953 2.68497 11.4683L4.13497 11.1173C4.42829 11.0425 4.69851 10.8962 4.92152 10.6916C5.14452 10.4869 5.31337 10.2302 5.41297 9.94431C5.48658 9.74054 5.56967 9.54033 5.66197 9.34432C5.79394 9.07169 5.85626 8.7706 5.84334 8.468C5.83043 8.16539 5.74269 7.8707 5.58797 7.61031L4.81197 6.33631C4.75197 6.23931 4.77597 6.15031 4.81197 6.10831C5.11397 5.76031 5.43997 5.43431 5.78797 5.13231C5.82997 5.09631 5.91797 5.07231 6.01597 5.13231L7.28997 5.90831C7.55036 6.06303 7.84505 6.15077 8.14766 6.16368C8.45026 6.1766 8.75135 6.11428 9.02397 5.98232C9.21998 5.89001 9.4202 5.80692 9.62397 5.73331C9.90951 5.63366 10.166 5.46491 10.3705 5.2421C10.5749 5.01928 10.7211 4.74934 10.796 4.45632L11.149 3.00631C11.175 2.89531 11.255 2.84931 11.31 2.84531Z" fill="#4A4949"/>
</svg>
