<svg width="20" height="20" viewBox="0 0 20 20" fill="none" xmlns="http://www.w3.org/2000/svg">
<path d="M15.8337 1.66669H4.16699C3.50395 1.66669 2.86807 1.93008 2.39923 2.39892C1.93038 2.86776 1.66699 3.50365 1.66699 4.16669V15.8334C1.66699 16.4964 1.93038 17.1323 2.39923 17.6011C2.86807 18.07 3.50395 18.3334 4.16699 18.3334H15.8337C16.4967 18.3334 17.1326 18.07 17.6014 17.6011C18.0703 17.1323 18.3337 16.4964 18.3337 15.8334V4.16669C18.3337 3.50365 18.0703 2.86776 17.6014 2.39892C17.1326 1.93008 16.4967 1.66669 15.8337 1.66669ZM8.33366 3.33335H11.667V5.94169L10.4587 5.10835C10.3226 5.01875 10.1632 4.97099 10.0003 4.97099C9.83741 4.97099 9.67806 5.01875 9.54199 5.10835L8.33366 5.94169V3.33335ZM16.667 15.8334C16.667 16.0544 16.5792 16.2663 16.4229 16.4226C16.2666 16.5789 16.0547 16.6667 15.8337 16.6667H4.16699C3.94598 16.6667 3.73402 16.5789 3.57774 16.4226C3.42146 16.2663 3.33366 16.0544 3.33366 15.8334V4.16669C3.33366 3.94567 3.42146 3.73371 3.57774 3.57743C3.73402 3.42115 3.94598 3.33335 4.16699 3.33335H6.66699V7.50002C6.66739 7.65077 6.70868 7.79859 6.78646 7.92774C6.86424 8.05688 6.97559 8.1625 7.10866 8.23335C7.23897 8.30026 7.38461 8.33164 7.53092 8.32433C7.67722 8.31701 7.81901 8.27126 7.94199 8.19169L10.0003 6.83335L12.042 8.19169C12.1673 8.27423 12.3126 8.32139 12.4625 8.3282C12.6125 8.33501 12.7614 8.3012 12.8937 8.23036C13.026 8.15952 13.1367 8.05426 13.2142 7.92571C13.2916 7.79716 13.3329 7.65009 13.3337 7.50002V3.33335H15.8337C16.0547 3.33335 16.2666 3.42115 16.4229 3.57743C16.5792 3.73371 16.667 3.94567 16.667 4.16669V15.8334Z" fill="#4A4949"/>
</svg>
