<svg width="20" height="20" viewBox="0 0 20 20" fill="none" xmlns="http://www.w3.org/2000/svg">
<path d="M6.66667 10H8.33333C8.55435 10 8.76631 9.91222 8.92259 9.75594C9.07887 9.59966 9.16667 9.3877 9.16667 9.16669C9.16667 8.94567 9.07887 8.73371 8.92259 8.57743C8.76631 8.42115 8.55435 8.33335 8.33333 8.33335H6.66667C6.44565 8.33335 6.23369 8.42115 6.07741 8.57743C5.92113 8.73371 5.83333 8.94567 5.83333 9.16669C5.83333 9.3877 5.92113 9.59966 6.07741 9.75594C6.23369 9.91222 6.44565 10 6.66667 10ZM14.1667 5.00002H10V3.33335H10.8333C11.0543 3.33335 11.2663 3.24556 11.4226 3.08928C11.5789 2.933 11.6667 2.72103 11.6667 2.50002C11.6667 2.27901 11.5789 2.06704 11.4226 1.91076C11.2663 1.75448 11.0543 1.66669 10.8333 1.66669H9.16667C8.94565 1.66669 8.73369 1.75448 8.57741 1.91076C8.42113 2.06704 8.33333 2.27901 8.33333 2.50002V5.00002H5.83333C4.94928 5.00002 4.10143 5.35121 3.47631 5.97633C2.85119 6.60145 2.5 7.4493 2.5 8.33335V13.3334C2.5 13.5544 2.5878 13.7663 2.74408 13.9226C2.90036 14.0789 3.11232 14.1667 3.33333 14.1667H8.33333V17.5C8.33333 17.721 8.42113 17.933 8.57741 18.0893C8.73369 18.2456 8.94565 18.3334 9.16667 18.3334C9.38768 18.3334 9.59964 18.2456 9.75592 18.0893C9.9122 17.933 10 17.721 10 17.5V14.1667H16.6667C16.8877 14.1667 17.0996 14.0789 17.2559 13.9226C17.4122 13.7663 17.5 13.5544 17.5 13.3334V8.33335C17.5 7.4493 17.1488 6.60145 16.5237 5.97633C15.8986 5.35121 15.0507 5.00002 14.1667 5.00002ZM10.8333 8.33335V12.5H4.16667V8.33335C4.16667 7.89133 4.34226 7.4674 4.65482 7.15484C4.96738 6.84228 5.39131 6.66669 5.83333 6.66669H11.3C10.997 7.17001 10.8358 7.74589 10.8333 8.33335ZM15.8333 12.5H12.5V8.33335C12.5 7.89133 12.6756 7.4674 12.9882 7.15484C13.3007 6.84228 13.7246 6.66669 14.1667 6.66669C14.6087 6.66669 15.0326 6.84228 15.3452 7.15484C15.6577 7.4674 15.8333 7.89133 15.8333 8.33335V12.5Z" fill="#4A4949"/>
</svg>
